#Comment line ignore any data following # character 
#Hierarchical Translation and Rotation (.htr) file 
[Header]	
#Header keywords are followed by a single value 
FileType HTR		#Single word string
DataType HTRS		#Translation followed by rotation and scale data
FileVersion 1		#integer
NumSegments 84		#integer
NumFrames 2		#integer
DataFrameRate 30		#integer, data frame rate in this file
EulerRotationOrder ZYX
CalibrationUnits mm
RotationUnits Degrees
GlobalAxisofGravity Y
BoneLengthAxis Y
ScaleFactor 1.00
[SegmentNames&Hierarchy]
#CHILD	PARENT
MASTER GLOBAL
root MASTER
chest root
L_mid_tent01 root
R_mid_tent01 root
spine01 root
Bip01_Neck chest
L_humerus chest
R_humerus chest
weapon_bone chest
Bip01_Head Bip01_Neck
eye_left_bone Bip01_Head
eye_right_bone Bip01_Head
L_forearm L_humerus
L_front_hand L_forearm
L_weapon_bone L_forearm
L_front_hand01_01 L_front_hand
L_front_hand02_01 L_front_hand
L_front_hand03_01 L_front_hand
L_front_hand01_02 L_front_hand01_01
L_front_hand02_02 L_front_hand02_01
L_front_hand03_02 L_front_hand03_01
R_forearm R_humerus
R_front_hand R_forearm
R_weapon_bone R_forearm
R_front_hand01_01 R_front_hand
R_front_hand02_01 R_front_hand
R_front_hand03_01 R_front_hand
R_front_hand01_02 R_front_hand01_01
R_front_hand02_02 R_front_hand02_01
R_front_hand03_02 R_front_hand03_01
null_rope01_connect L_mid_tent01
Rope1_Seg01 null_rope01_connect
Rope1_Seg02 Rope1_Seg01
Rope1_Seg03 Rope1_Seg02
Rope1_Seg04 Rope1_Seg03
Rope1_Seg05 Rope1_Seg04
Rope1_Seg06 Rope1_Seg05
Rope1_Seg07 Rope1_Seg06
Rope1_Seg09 Rope1_Seg07
L_mid_hand01 Rope1_Seg09
L_mid_hand02 Rope1_Seg09
L_mid_hand03 Rope1_Seg09
null_rope02_connect R_mid_tent01
Rope2_Seg01 null_rope02_connect
Rope2_Seg02 Rope2_Seg01
Rope2_Seg03 Rope2_Seg02
Rope2_Seg04 Rope2_Seg03
Rope2_Seg05 Rope2_Seg04
Rope2_Seg06 Rope2_Seg05
Rope2_Seg07 Rope2_Seg06
Rope2_Seg09 Rope2_Seg07
R_mid_hand01 Rope2_Seg09
R_mid_hand02 Rope2_Seg09
R_mid_hand03 Rope2_Seg09
spine02 spine01
spine03 spine02
pelvis spine03
null_rope03_connect pelvis
null_rope04_connect pelvis
Rope3_Seg01 null_rope03_connect
Rope3_Seg02 Rope3_Seg01
Rope3_Seg03 Rope3_Seg02
Rope3_Seg04 Rope3_Seg03
Rope3_Seg05 Rope3_Seg04
Rope3_Seg06 Rope3_Seg05
Rope3_Seg07 Rope3_Seg06
Rope3_Seg08 Rope3_Seg07
Rope3_Seg09 Rope3_Seg08
R_rear_hand01 Rope3_Seg09
R_rear_hand02 Rope3_Seg09
R_rear_hand03 Rope3_Seg09
Rope4_Seg01 null_rope04_connect
Rope4_Seg02 Rope4_Seg01
Rope4_Seg03 Rope4_Seg02
Rope4_Seg04 Rope4_Seg03
Rope4_Seg05 Rope4_Seg04
Rope4_Seg06 Rope4_Seg05
Rope4_Seg07 Rope4_Seg06
Rope4_Seg08 Rope4_Seg07
Rope4_Seg09 Rope4_Seg08
L_rear_hand01 Rope4_Seg09
L_rear_hand02 Rope4_Seg09
L_rear_hand03 Rope4_Seg09
[BasePosition]
#SegmentName Tx, Ty, Tz, Rx, Ry, Rz, BoneLength
MASTER 0.000000 0.000000 0.000000 -90.000000 0.000000 0.000000 10.000000 
root 0.000000 0.000000 0.000000 0.000000 0.000000 0.000000 10.000000 
chest 0.000000 0.000000 0.000000 0.000000 0.000000 0.000000 10.000000 
L_mid_tent01 0.000000 0.000000 0.000000 0.000000 0.000000 0.000000 10.000000 
R_mid_tent01 0.000000 0.000000 0.000000 0.000000 0.000000 0.000000 10.000000 
spine01 0.000000 0.000000 0.000000 0.000000 0.000000 0.000000 10.000000 
Bip01_Neck 0.000000 0.000000 0.000000 0.000000 0.000000 0.000000 10.000000 
L_humerus 0.000000 0.000000 0.000000 0.000000 0.000000 0.000000 10.000000 
R_humerus 0.000000 0.000000 0.000000 0.000000 0.000000 0.000000 10.000000 
weapon_bone 0.000000 0.000000 0.000000 0.000000 0.000000 0.000000 10.000000 
Bip01_Head 0.000000 0.000000 0.000000 0.000000 0.000000 0.000000 10.000000 
eye_left_bone 0.000000 0.000000 0.000000 0.000000 0.000000 0.000000 10.000000 
eye_right_bone 0.000000 0.000000 0.000000 0.000000 0.000000 0.000000 10.000000 
L_forearm 0.000000 0.000000 0.000000 0.000000 0.000000 0.000000 10.000000 
L_front_hand 0.000000 0.000000 0.000000 0.000000 0.000000 0.000000 10.000000 
L_weapon_bone 0.000000 0.000000 0.000000 0.000000 0.000000 0.000000 10.000000 
L_front_hand01_01 0.000000 0.000000 0.000000 0.000000 0.000000 0.000000 10.000000 
L_front_hand02_01 0.000000 0.000000 0.000000 0.000000 0.000000 0.000000 10.000000 
L_front_hand03_01 0.000000 0.000000 0.000000 0.000000 0.000000 0.000000 10.000000 
L_front_hand01_02 0.000000 0.000000 0.000000 0.000000 0.000000 0.000000 10.000000 
L_front_hand02_02 0.000000 0.000000 0.000000 0.000000 0.000000 0.000000 10.000000 
L_front_hand03_02 0.000000 0.000000 0.000000 0.000000 0.000000 0.000000 10.000000 
R_forearm 0.000000 0.000000 0.000000 0.000000 0.000000 0.000000 10.000000 
R_front_hand 0.000000 0.000000 0.000000 0.000000 0.000000 0.000000 10.000000 
R_weapon_bone 0.000000 0.000000 0.000000 0.000000 0.000000 0.000000 10.000000 
R_front_hand01_01 0.000000 0.000000 0.000000 0.000000 0.000000 0.000000 10.000000 
R_front_hand02_01 0.000000 0.000000 0.000000 0.000000 0.000000 0.000000 10.000000 
R_front_hand03_01 0.000000 0.000000 0.000000 0.000000 0.000000 0.000000 10.000000 
R_front_hand01_02 0.000000 0.000000 0.000000 0.000000 0.000000 0.000000 10.000000 
R_front_hand02_02 0.000000 0.000000 0.000000 0.000000 0.000000 0.000000 10.000000 
R_front_hand03_02 0.000000 0.000000 0.000000 0.000000 0.000000 0.000000 10.000000 
null_rope01_connect 0.000000 0.000000 0.000000 0.000000 0.000000 0.000000 10.000000 
Rope1_Seg01 0.000000 0.000000 0.000000 0.000000 0.000000 0.000000 10.000000 
Rope1_Seg02 0.000000 0.000000 0.000000 0.000000 0.000000 0.000000 10.000000 
Rope1_Seg03 0.000000 0.000000 0.000000 0.000000 0.000000 0.000000 10.000000 
Rope1_Seg04 0.000000 0.000000 0.000000 0.000000 0.000000 0.000000 10.000000 
Rope1_Seg05 0.000000 0.000000 0.000000 0.000000 0.000000 0.000000 10.000000 
Rope1_Seg06 0.000000 0.000000 0.000000 0.000000 0.000000 0.000000 10.000000 
Rope1_Seg07 0.000000 0.000000 0.000000 0.000000 0.000000 0.000000 10.000000 
Rope1_Seg09 0.000000 0.000000 0.000000 0.000000 0.000000 0.000000 10.000000 
L_mid_hand01 0.000000 0.000000 0.000000 0.000000 0.000000 0.000000 10.000000 
L_mid_hand02 0.000000 0.000000 0.000000 0.000000 0.000000 0.000000 10.000000 
L_mid_hand03 0.000000 0.000000 0.000000 0.000000 0.000000 0.000000 10.000000 
null_rope02_connect 0.000000 0.000000 0.000000 0.000000 0.000000 0.000000 10.000000 
Rope2_Seg01 0.000000 0.000000 0.000000 0.000000 0.000000 0.000000 10.000000 
Rope2_Seg02 0.000000 0.000000 0.000000 0.000000 0.000000 0.000000 10.000000 
Rope2_Seg03 0.000000 0.000000 0.000000 0.000000 0.000000 0.000000 10.000000 
Rope2_Seg04 0.000000 0.000000 0.000000 0.000000 0.000000 0.000000 10.000000 
Rope2_Seg05 0.000000 0.000000 0.000000 0.000000 0.000000 0.000000 10.000000 
Rope2_Seg06 0.000000 0.000000 0.000000 0.000000 0.000000 0.000000 10.000000 
Rope2_Seg07 0.000000 0.000000 0.000000 0.000000 0.000000 0.000000 10.000000 
Rope2_Seg09 0.000000 0.000000 0.000000 0.000000 0.000000 0.000000 10.000000 
R_mid_hand01 0.000000 0.000000 0.000000 0.000000 0.000000 0.000000 10.000000 
R_mid_hand02 0.000000 0.000000 0.000000 0.000000 0.000000 0.000000 10.000000 
R_mid_hand03 0.000000 0.000000 0.000000 0.000000 0.000000 0.000000 10.000000 
spine02 0.000000 0.000000 0.000000 0.000000 0.000000 0.000000 10.000000 
spine03 0.000000 0.000000 0.000000 0.000000 0.000000 0.000000 10.000000 
pelvis 0.000000 0.000000 0.000000 0.000000 0.000000 0.000000 10.000000 
null_rope03_connect 0.000000 0.000000 0.000000 0.000000 0.000000 0.000000 10.000000 
null_rope04_connect 0.000000 0.000000 0.000000 0.000000 0.000000 0.000000 10.000000 
Rope3_Seg01 0.000000 0.000000 0.000000 0.000000 0.000000 0.000000 10.000000 
Rope3_Seg02 0.000000 0.000000 0.000000 0.000000 0.000000 0.000000 10.000000 
Rope3_Seg03 0.000000 0.000000 0.000000 0.000000 0.000000 0.000000 10.000000 
Rope3_Seg04 0.000000 0.000000 0.000000 0.000000 0.000000 0.000000 10.000000 
Rope3_Seg05 0.000000 0.000000 0.000000 0.000000 0.000000 0.000000 10.000000 
Rope3_Seg06 0.000000 0.000000 0.000000 0.000000 0.000000 0.000000 10.000000 
Rope3_Seg07 0.000000 0.000000 0.000000 0.000000 0.000000 0.000000 10.000000 
Rope3_Seg08 0.000000 0.000000 0.000000 0.000000 0.000000 0.000000 10.000000 
Rope3_Seg09 0.000000 0.000000 0.000000 0.000000 0.000000 0.000000 10.000000 
R_rear_hand01 0.000000 0.000000 0.000000 0.000000 0.000000 0.000000 10.000000 
R_rear_hand02 0.000000 0.000000 0.000000 0.000000 0.000000 0.000000 10.000000 
R_rear_hand03 0.000000 0.000000 0.000000 0.000000 0.000000 0.000000 10.000000 
Rope4_Seg01 0.000000 0.000000 0.000000 0.000000 0.000000 0.000000 10.000000 
Rope4_Seg02 0.000000 0.000000 0.000000 0.000000 0.000000 0.000000 10.000000 
Rope4_Seg03 0.000000 0.000000 0.000000 0.000000 0.000000 0.000000 10.000000 
Rope4_Seg04 0.000000 0.000000 0.000000 0.000000 0.000000 0.000000 10.000000 
Rope4_Seg05 0.000000 0.000000 0.000000 0.000000 0.000000 0.000000 10.000000 
Rope4_Seg06 0.000000 0.000000 0.000000 0.000000 0.000000 0.000000 10.000000 
Rope4_Seg07 0.000000 0.000000 0.000000 0.000000 0.000000 0.000000 10.000000 
Rope4_Seg08 0.000000 0.000000 0.000000 0.000000 0.000000 0.000000 10.000000 
Rope4_Seg09 0.000000 0.000000 0.000000 0.000000 0.000000 0.000000 10.000000 
L_rear_hand01 0.000000 0.000000 0.000000 0.000000 0.000000 0.000000 10.000000 
L_rear_hand02 0.000000 0.000000 0.000000 0.000000 0.000000 0.000000 10.000000 
L_rear_hand03 0.000000 0.000000 0.000000 0.000000 0.000000 0.000000 10.000000 
#Beginning of Data. Separated by tabs
#Fr	Tx	Ty	Tz	Rx	Ry	Rz	SF
[MASTER]
32 -1354.124390 163.131348 1515.048706 0.001660 0.001660 0.001660 2038.538086
33 -1354.124390 163.131348 1515.048706 0.001660 0.001660 0.001660 2038.538086
[root]
32 20.013123 -118.897354 462.015350 -167.047821 -12.741920 -69.152412 477.488556
33 20.013123 -118.897354 462.015350 -167.389023 -12.640735 -69.057732 477.488556
[chest]
32 -84.512650 -34.090519 0.000000 -41.737740 -26.765667 -176.668411 91.129311
33 -84.512650 -34.090519 0.000000 -42.780521 -27.121733 -176.027298 91.129311
[L_mid_tent01]
32 27.299170 22.179260 -249.918732 -6.539579 14.819527 53.535290 252.381729
33 27.299171 22.179264 -249.918732 -6.073663 14.839035 55.169704 252.381729
[R_mid_tent01]
32 23.228794 24.509907 226.238495 179.482758 -20.405544 30.771955 228.744751
33 23.228794 24.509907 226.238495 179.028839 -19.887726 31.611601 228.744751
[spine01]
32 -0.361383 -0.195265 0.000000 0.001955 0.001300 22.762737 0.410763
33 -0.361383 -0.195265 0.000000 0.001954 0.001300 22.723646 0.410763
[Bip01_Neck]
32 165.484543 71.581718 0.000119 176.643677 -1.657967 43.431911 180.302734
33 165.484543 71.581718 0.000119 176.643677 -1.657967 43.431911 180.302734
[L_humerus]
32 -13.983130 -135.272980 -120.471481 152.052948 71.485291 -116.088997 181.680161
33 -13.983130 -135.272980 -120.471481 152.375366 71.079956 -115.768906 181.680161
[R_humerus]
32 -13.983309 -135.273102 125.287651 -82.624924 -64.251656 -178.475494 184.909012
33 -13.983309 -135.273102 125.287651 -86.303368 -65.308830 -175.014404 184.909012
[weapon_bone]
32 235.964890 -300.705902 0.000000 0.000000 -89.951546 -128.212341 382.234833
33 235.964890 -300.705902 0.000000 0.000000 -89.951546 -128.212341 382.234833
[Bip01_Head]
32 213.375381 185.907288 9.301450 -3.391264 5.061138 -43.841785 283.155579
33 213.360443 185.948792 8.765106 -1.877631 5.369871 -43.840988 283.154480
[eye_left_bone]
32 -24.626970 125.451866 -64.772606 0.000000 -90.000000 -99.840431 143.318359
33 -24.626970 125.451866 -64.772606 0.000000 -90.000000 -99.840431 143.318359
[eye_right_bone]
32 -24.626970 125.451866 64.327362 0.000000 -89.965736 80.156380 143.117676
33 -24.626970 125.451866 64.327362 0.000000 -89.965736 80.156380 143.117676
[L_forearm]
32 322.776093 0.000000 -0.000119 0.000230 -0.002336 -101.265762 322.776093
33 322.776093 0.000000 -0.000119 0.000237 -0.002335 -101.609619 322.776093
[L_front_hand]
32 241.149185 -0.042021 -3.300071 -105.490540 -1.835781 -27.423635 241.171753
33 241.149185 -0.042021 -3.300071 -105.490540 -1.835781 -27.423635 241.171753
[L_weapon_bone]
32 156.183838 0.000000 0.000000 0.000014 0.000007 0.000001 156.183838
33 156.183838 0.000000 0.000000 0.000014 0.000007 0.000001 156.183838
[L_front_hand01_01]
32 86.095154 20.947098 -0.655860 -0.366594 -0.477154 75.385574 88.609184
33 86.095154 20.947098 -0.655860 -0.366594 -0.477154 75.385574 88.609184
[L_front_hand02_01]
32 86.935165 -11.437475 24.513514 154.399796 -59.883835 -61.369587 91.046425
33 86.935165 -11.437475 24.513514 154.399796 -59.883835 -61.369587 91.046425
[L_front_hand03_01]
32 86.637497 -14.123976 -20.424902 -153.913849 58.118122 -62.702866 90.126129
33 86.637497 -14.123976 -20.424902 -153.913849 58.118122 -62.702866 90.126129
[L_front_hand01_02]
32 71.020905 -0.000179 0.000030 0.000334 -0.002323 -106.379684 71.020905
33 71.020905 -0.000179 0.000030 0.000334 -0.002323 -106.379684 71.020905
[L_front_hand02_02]
32 71.020927 -0.000119 0.000060 0.000334 -0.002323 -106.379684 71.020927
33 71.020927 -0.000119 0.000060 0.000334 -0.002323 -106.379684 71.020927
[L_front_hand03_02]
32 71.020905 -0.000060 0.000060 0.000334 -0.002323 -106.379684 71.020905
33 71.020905 -0.000060 0.000060 0.000334 -0.002323 -106.379684 71.020905
[R_forearm]
32 322.776428 -0.000060 0.000030 0.211245 0.033377 -99.839920 322.776428
33 322.776428 -0.000060 0.000030 0.211141 0.034012 -100.185097 322.776428
[R_front_hand]
32 238.847015 -0.006795 2.210259 -2.635298 -10.645461 -26.312506 238.857239
33 238.847015 -0.006795 2.210259 -2.635298 -10.645461 -26.312506 238.857239
[R_weapon_bone]
32 155.664093 0.002503 -0.000030 0.003487 0.001180 -90.988930 155.664078
33 155.664093 0.002503 -0.000030 0.003487 0.001180 -90.988930 155.664078
[R_front_hand01_01]
32 87.624611 14.231146 22.918642 -154.633484 -59.950619 61.746037 91.683487
33 87.624611 14.231146 22.918642 -154.633499 -59.950619 61.746044 91.683487
[R_front_hand02_01]
32 89.356956 14.367283 -19.491137 154.602661 58.302849 63.744389 92.579636
33 89.356956 14.367283 -19.491137 154.602661 58.302849 63.744389 92.579636
[R_front_hand03_01]
32 87.286232 -22.307278 -0.143439 0.162155 -0.423168 -75.767921 90.091743
33 87.286232 -22.307278 -0.143439 0.162155 -0.423168 -75.767921 90.091743
[R_front_hand01_02]
32 71.020905 0.000060 0.000119 0.002323 -0.000334 106.381714 71.020905
33 71.020905 0.000060 0.000119 0.002323 -0.000334 106.381714 71.020905
[R_front_hand02_02]
32 71.020844 -0.000030 -0.000119 0.002323 -0.000334 106.381714 71.020836
33 71.020844 -0.000030 -0.000119 0.002323 -0.000334 106.381714 71.020836
[R_front_hand03_02]
32 71.020905 0.000000 0.000030 0.002323 -0.000334 106.381714 71.020905
33 71.020905 0.000000 0.000030 0.002323 -0.000334 106.381714 71.020905
[null_rope01_connect]
32 328.732483 0.000000 -0.000238 -163.869904 -2.997234 -124.672508 328.732483
33 328.732483 0.000000 -0.000238 -163.950119 -2.798848 -126.126724 328.732483
[Rope1_Seg01]
32 0.000135 -0.000072 0.000017 58.232986 -64.605339 48.954590 0.000154
33 0.000140 -0.000073 0.000013 62.098488 -64.277611 44.690594 0.000158
[Rope1_Seg02]
32 139.999863 -0.000179 0.000000 0.085011 6.415737 4.138502 139.999863
33 139.999863 -0.000179 0.000000 0.101903 6.444993 4.243627 139.999863
[Rope1_Seg03]
32 139.999924 0.000060 -0.000060 0.105964 11.428061 7.503009 139.999924
33 139.999924 0.000060 -0.000060 0.165456 11.609935 7.774489 139.999924
[Rope1_Seg04]
32 139.999924 -0.000060 -0.000119 0.426763 25.419712 16.443087 139.999924
33 139.999924 -0.000060 -0.000119 0.786250 26.030516 17.410931 139.999924
[Rope1_Seg05]
32 139.999832 0.000119 -0.000060 -1.221827 20.475187 16.902828 139.999832
33 139.999832 0.000119 -0.000060 -1.003060 21.021814 17.323605 139.999832
[Rope1_Seg06]
32 139.999954 0.000119 -0.000060 -0.716643 1.297425 11.602105 139.999954
33 139.999954 0.000119 -0.000060 -0.661498 0.791703 10.367934 139.999954
[Rope1_Seg07]
32 139.999985 0.000060 0.000000 1.126595 4.345039 14.834903 139.999985
33 139.999985 0.000060 0.000000 0.868255 3.203561 14.157922 139.999985
[Rope1_Seg09]
32 121.602913 0.000119 -0.000089 -89.793175 -1.359789 0.847147 121.602913
33 121.602913 0.000119 -0.000089 -89.793175 -1.359789 0.847147 121.602913
[L_mid_hand01]
32 103.859421 1.038730 8.195221 130.544357 -67.584518 -38.866943 104.187431
33 103.859421 1.038730 8.195221 130.544373 -67.584534 -38.866943 104.187431
[L_mid_hand02]
32 105.572853 -4.139662 -10.864139 -168.923172 43.409309 -73.498894 106.211075
33 105.572853 -4.139662 -10.864139 -168.923172 43.409309 -73.498886 106.211075
[L_mid_hand03]
32 104.641464 17.579376 -3.913581 -6.012625 17.808172 74.893669 106.179977
33 104.641464 17.579376 -3.913581 -6.012627 17.808174 74.893669 106.179977
[null_rope02_connect]
32 328.732849 0.000179 -0.000119 -14.072076 18.346020 92.966560 328.732849
33 328.732849 0.000179 -0.000119 -13.509748 17.814251 93.979881 328.732849
[Rope2_Seg01]
32 0.000140 0.000148 -0.000135 80.859192 78.582298 16.804993 0.000244
33 0.000143 0.000149 -0.000140 84.050064 78.955841 20.064417 0.000249
[Rope2_Seg02]
32 139.999741 -0.000060 -0.000119 -1.272862 14.998252 -5.315910 139.999756
33 139.999741 -0.000060 -0.000119 -1.454413 15.525559 -5.180011 139.999756
[Rope2_Seg03]
32 140.000107 0.000030 0.000000 -17.840534 38.898026 -11.752003 140.000107
33 140.000107 0.000030 0.000000 -17.389990 36.695351 -9.001085 140.000107
[Rope2_Seg04]
32 139.999802 0.000000 -0.000060 -134.494354 36.333935 -3.120207 139.999802
33 139.999802 0.000000 -0.000060 -121.857285 33.328941 -2.646598 139.999802
[Rope2_Seg05]
32 139.999985 -0.000060 0.000119 -44.410606 10.754367 6.102931 139.999985
33 139.999985 -0.000060 0.000119 -60.046196 11.017803 7.487159 139.999985
[Rope2_Seg06]
32 139.999893 -0.000030 -0.000119 -22.196268 1.553980 6.081279 139.999893
33 139.999893 -0.000030 -0.000119 -16.089706 -1.251905 5.775402 139.999893
[Rope2_Seg07]
32 139.999893 0.000060 -0.000060 -5.286366 -1.450967 2.539563 139.999893
33 139.999893 0.000060 -0.000060 -3.359960 -2.125309 2.231644 139.999893
[Rope2_Seg09]
32 121.338966 0.000089 -0.000060 33.793236 -1.359788 -0.847141 121.338966
33 121.338966 0.000089 -0.000060 33.793236 -1.359788 -0.847141 121.338966
[R_mid_hand01]
32 104.680779 11.144459 -10.335981 -16.212063 45.237247 70.462852 105.778534
33 104.680779 11.144459 -10.335981 -16.212063 45.237247 70.462852 105.778534
[R_mid_hand02]
32 104.070427 2.443552 8.231699 49.067368 -67.749771 39.286453 104.424065
33 104.070427 2.443552 8.231699 49.067368 -67.749771 39.286453 104.424065
[R_mid_hand03]
32 106.028137 -11.221827 -5.996406 -177.101105 15.551026 -76.585571 106.788818
33 106.028137 -11.221827 -5.996406 -177.101105 15.551026 -76.585571 106.788818
[spine02]
32 129.756927 0.001550 0.000119 -0.477086 -4.033197 -1.114855 129.756927
33 129.756927 0.001550 0.000119 -0.441437 -4.036539 -1.610988 129.756927
[spine03]
32 78.614044 0.080976 -4.898988 1.390673 4.042117 9.129621 78.766579
33 78.614044 0.080950 -4.898988 1.412341 4.034973 9.435559 78.766579
[pelvis]
32 169.435242 0.051022 0.000000 -0.011869 -0.191316 -0.783063 169.435257
33 169.435242 0.051022 0.000000 -0.012928 -0.191248 -0.148342 169.435257
[null_rope03_connect]
32 -1.257226 -2.466202 137.391083 -172.749222 -16.887655 -98.685707 137.418976
33 -1.257226 -2.466202 137.391083 -172.749176 -16.582100 -99.024055 137.418976
[null_rope04_connect]
32 -1.259640 -2.480268 -137.844437 -172.749222 -16.887655 -98.685707 137.872513
33 -1.259640 -2.480268 -137.844437 -172.749176 -16.582100 -99.024055 137.872513
[Rope3_Seg01]
32 0.000000 0.000000 0.000000 35.171310 36.358524 -51.192478 0.000000
33 0.000000 0.000000 0.000000 35.554859 36.828724 -51.021782 0.000000
[Rope3_Seg02]
32 139.999924 -0.000119 0.000060 3.704978 2.023921 -11.583178 139.999924
33 139.999924 -0.000119 0.000060 3.781882 2.200485 -11.571591 139.999924
[Rope3_Seg03]
32 139.999924 -0.000119 0.000119 2.003602 2.369985 -36.033283 139.999924
33 139.999924 -0.000119 0.000119 2.062789 2.880071 -35.704533 139.999924
[Rope3_Seg04]
32 139.999924 0.000119 0.000000 -19.435835 1.140029 -50.353485 139.999924
33 139.999924 0.000119 0.000000 -19.570349 2.056146 -50.645924 139.999924
[Rope3_Seg05]
32 139.999924 -0.000238 0.000060 -26.458242 13.969350 -18.047968 139.999924
33 139.999924 -0.000238 0.000060 -25.743603 13.386396 -18.496758 139.999924
[Rope3_Seg06]
32 139.999893 -0.000119 -0.000060 -9.655874 8.616353 -3.948175 139.999893
33 139.999893 -0.000119 -0.000060 -9.035221 7.614803 -4.191243 139.999893
[Rope3_Seg07]
32 139.999771 0.000060 -0.000119 -4.097798 4.427279 -1.667372 139.999771
33 139.999771 0.000060 -0.000119 -3.941396 3.994660 -1.779841 139.999771
[Rope3_Seg08]
32 139.999985 -0.000060 0.000000 -1.814902 2.463413 -0.734959 139.999985
33 139.999985 -0.000060 0.000000 -1.770492 2.234809 -0.819492 139.999985
[Rope3_Seg09]
32 90.185997 -0.000179 -0.000060 89.793228 -1.359877 -0.847183 90.185997
33 90.185997 -0.000179 -0.000060 89.793228 -1.359877 -0.847183 90.185997
[R_rear_hand01]
32 103.366196 -6.073594 -10.757982 172.856537 -15.220671 -75.434441 104.101845
33 103.366196 -6.073594 -10.757982 172.856537 -15.220671 -75.434441 104.101845
[R_rear_hand02]
32 100.509819 12.039542 -7.992327 -12.874829 36.868488 72.167213 101.543350
33 100.509819 12.039542 -7.992327 -12.874829 36.868488 72.167213 101.543350
[R_rear_hand03]
32 101.539970 5.215704 5.435467 71.484581 -71.816628 21.513813 101.819031
33 101.539970 5.215704 5.435467 71.484581 -71.816628 21.513813 101.819031
[Rope4_Seg01]
32 0.000010 0.000004 -0.000017 -129.907516 -35.120659 -55.244362 0.000020
33 0.000010 0.000003 -0.000013 -128.917526 -35.518032 -56.996964 0.000017
[Rope4_Seg02]
32 139.999985 0.000060 0.000119 -6.008142 15.147930 -1.312508 139.999985
33 139.999985 0.000060 0.000119 -6.386289 14.233509 -2.309023 139.999985
[Rope4_Seg03]
32 139.999924 0.000000 -0.000238 -3.746780 29.716856 0.763349 139.999924
33 139.999924 0.000000 -0.000238 -5.009524 27.733301 -1.658865 139.999924
[Rope4_Seg04]
32 139.999985 0.000000 0.000119 2.185357 28.392891 3.305035 139.999985
33 139.999985 0.000000 0.000119 1.127640 28.191551 0.381767 139.999985
[Rope4_Seg05]
32 139.999802 -0.000060 -0.000119 7.211840 24.345333 0.520158 139.999802
33 139.999802 -0.000060 -0.000119 5.987931 24.217066 1.059535 139.999802
[Rope4_Seg06]
32 139.999924 0.000000 0.000060 28.476688 28.841993 -4.175340 139.999924
33 139.999924 0.000000 0.000060 24.618799 30.212433 -1.197693 139.999924
[Rope4_Seg07]
32 139.999802 0.000000 0.000000 30.966187 11.732479 -8.764988 139.999802
33 139.999802 0.000000 0.000000 33.741501 13.762677 -7.348400 139.999802
[Rope4_Seg08]
32 139.999924 0.000000 0.000119 14.189265 2.571971 -6.406896 139.999924
33 139.999924 0.000000 0.000119 17.217936 3.323627 -6.349696 139.999924
[Rope4_Seg09]
32 90.185791 0.000060 0.000060 -135.617828 2.228885 0.850567 90.185791
33 90.185791 0.000060 0.000060 -135.617828 2.228885 0.850567 90.185791
[L_rear_hand01]
32 101.696655 -8.392275 -7.654577 -12.874829 -36.868488 107.832764 102.329041
33 101.696655 -8.392275 -7.654577 -12.874829 -36.868488 107.832764 102.329041
[L_rear_hand02]
32 102.726799 -1.568258 5.773216 71.484581 71.816628 158.486160 102.900848
33 102.726799 -1.568258 5.773216 71.484581 71.816628 158.486160 102.900848
[L_rear_hand03]
32 104.552910 9.721220 -10.420293 -177.714203 -24.565960 -106.089035 105.519653
33 104.552910 9.721220 -10.420293 -177.714203 -24.565960 -106.089035 105.519653
